<svg xmlns="http://www.w3.org/2000/svg" width="16" height="16" viewBox="0 0 16 16"><g transform="translate(0 -1036.362)"><path fill="#c2e4f8" d="m 3.9945054,1040.8588 a 3.9999957,3.9999957 0 0 1 3.9999958,-4 3.9999957,3.9999957 0 0 1 3.9999958,4"/><path fill="#c2e4f8" fill-rule="evenodd" d="m 4.01051,1040.8657 c 0,2.9967 2.59949,5.3371 3.90003,8 1.367,-2.6636 4.09997,-5.0033 4.09997,-8"/><path fill="#249fe6" style="line-height:normal;text-indent:0;text-align:start;text-decoration-line:none;text-decoration-style:solid;text-decoration-color:#000;text-transform:none;block-progression:tb;isolation:auto;mix-blend-mode:normal" d="m 7.9941406,1036.3594 c -2.4793586,0 -4.5000026,2.0206 -4.5,4.5 a 0.50004997,0.50004997 0 1 0 1,0 c -2.1e-6,-1.9389 1.5610819,-3.5 3.5,-3.5 1.9389181,0 3.5000024,1.5611 3.5000004,3.5 a 0.50004997,0.50004997 0 1 0 1,0 c 2e-6,-2.4794 -2.020642,-4.5 -4.5000004,-4.5 z" color="#000" font-family="sans-serif" font-weight="400" overflow="visible"/><path fill="#249fe6" fill-rule="evenodd" style="line-height:normal;text-indent:0;text-align:start;text-decoration-line:none;text-decoration-style:solid;text-decoration-color:#000;text-transform:none;block-progression:tb;isolation:auto;mix-blend-mode:normal" d="m 4.0039062,1040.3594 a 0.50005,0.50005 0 0 0 -0.4941406,0.5058 c 0,1.643 0.7080503,3.0705 1.5390625,4.3926 0.8310122,1.3221 1.7941394,2.5628 2.4121094,3.8281 a 0.50005,0.50005 0 0 0 0.8945313,0.01 c 0.6488511,-1.2643 1.6614042,-2.506 2.5351562,-3.8282 0.873752,-1.3221 1.619141,-2.75 1.619141,-4.4004 a 0.50005,0.50005 0 1 0 -1,0 c 0,1.3464 -0.618643,2.5869 -1.453125,3.8496 -0.6878377,1.0409 -1.4655113,2.1157 -2.1367191,3.2325 -0.6371197,-1.112 -1.371138,-2.1849 -2.0234375,-3.2227 -0.7938678,-1.263 -1.3867188,-2.5056 -1.3867188,-3.8594 a 0.50005,0.50005 0 0 0 -0.5058594,-0.5058 z" color="#000" font-family="sans-serif" font-weight="400" overflow="visible"/><path fill="#fff" d="m 8.9945011,1040.8623 a 1,1 0 0 1 -1,1 1,1 0 0 1 -1,-1 1,1 0 0 1 1,-1 1,1 0 0 1 1,1 z"/><path fill="#249fe6" style="line-height:normal;text-indent:0;text-align:start;text-decoration-line:none;text-decoration-style:solid;text-decoration-color:#000;text-transform:none;block-progression:tb;isolation:auto;mix-blend-mode:normal" d="M7.9941406 1039.3613c-.8225048 0-1.5.6775-1.5 1.5 0 .8225.6774952 1.5 1.5 1.5.8225048 0 1.5-.6775 1.5-1.5 0-.8225-.6774952-1.5-1.5-1.5zm0 1c.2820647 0 .5.218.5.5 0 .2821-.2179353.5-.5.5-.2820647 0-.5-.2179-.5-.5 0-.282.2179353-.5.5-.5zM12.083984 1045.5879a.50005.50005 0 0 0-.179687.9668c.996679.4037 1.637341.933 1.914062 1.4199.276722.4869.270255.9077-.0918 1.4258-.724096 1.0361-3.035585 1.9536-5.6738276 1.9648-2.6382658.011-4.9819162-.8829-5.7480469-1.9218-.383069-.5195-.4020658-.9433-.1445313-1.4278.2575346-.4844.8746083-1.0183 1.8554688-1.4297a.50005.50005 0 1 0-.3867188-.9218c-1.1206392.47-1.9365664 1.1021-2.3515624 1.8828-.4149961.7806-.34317141 1.7229.2226562 2.4902 1.1316537 1.5347 3.711068 2.3403 6.5585938 2.3281 2.8475002-.012 5.4027222-.8373 6.4882812-2.3906.542783-.7767.579554-1.7218.140625-2.4941-.438929-.7723-1.273549-1.3939-2.408203-1.8535a.50005.50005 0 0 0-.195313-.039z" color="#000" font-family="sans-serif" font-weight="400" overflow="visible"/></g></svg>